<svg width="114" height="40" viewBox="0 0 114 40" fill="none" xmlns="http://www.w3.org/2000/svg">
<g clip-path="url(#clip0_2_1502)">
<path fill-rule="evenodd" clip-rule="evenodd" d="M93.4108 14C89.2625 14 86.6003 17.0342 86.6003 20.6571C86.6003 24.2799 89.2625 27.257 93.4108 27.257C97.5591 27.257 100.222 24.2799 100.222 20.6571C100.222 17.0349 97.5397 14 93.4108 14ZM93.4108 24.6211C90.9027 24.6211 89.3973 22.7628 89.3973 20.6388C89.3973 18.4766 90.9221 16.6556 93.4108 16.6556C95.9002 16.6556 97.4242 18.4766 97.4242 20.6388C97.4242 22.7811 95.9002 24.6211 93.4108 24.6211ZM84.0945 18.8944C84.0945 16.0798 82.2122 14.2764 79.2699 14.2764H73.0195V26.9836H75.7592V23.513H78.0706L80.8453 26.9836H84.3232L81.2193 23.1967C83.0174 22.5597 84.0945 20.9994 84.0945 18.8944ZM75.76 16.8933H79.2058C80.4707 16.8933 81.4323 17.6313 81.4323 18.9009C81.4323 20.1442 80.4833 20.8954 79.2058 20.8954H75.76V16.8933ZM47.3059 14.2844L42 26.9916H45.0094L46.0708 24.2986H51.4929L52.5737 26.9916H55.6799L50.3547 14.2844H47.3059ZM47.0168 21.9278L48.7725 17.5273L50.5282 21.9278H47.0168ZM63.4726 24.7159C65.3639 24.7159 66.4633 23.3314 66.4633 21.5104V14.2844H69.203V21.5485C69.203 25.0762 66.9646 27.3328 63.4726 27.3328C60.0186 27.3328 57.7422 25.0754 57.7422 21.5485V14.2844H60.5012V21.5104C60.5012 23.3504 61.6201 24.7159 63.4726 24.7159ZM113.73 14.2844L109.292 20.4861L113.999 26.9909H110.546L107.652 22.7998L104.758 26.9909H101.4L106.069 20.5432L101.535 14.2844H104.989L107.729 18.2485L110.566 14.2844H113.73Z" fill="white"/>
<g clip-path="url(#clip1_2_1502)">
<path opacity="0.5" d="M26.4309 9.33258C25.6546 9.21091 24.8274 9.07031 24.0001 9.07031C23.1729 9.07031 22.3456 9.21091 21.5692 9.33258L18.2214 9.85658L24.0001 16.409L29.7789 9.85658L26.4309 9.33258Z" fill="white"/>
<path opacity="0.5" d="M47.926 4.7942C48.0174 4.90508 48.0372 5.076 47.9083 5.20581L43.1453 10.0007C42.528 10.6221 41.7263 11.024 40.8619 11.1446L36.6566 11.7331C36.0011 11.825 35.3811 12.0906 34.8615 12.5038L32.8505 14.1021L30.9238 13.0323V11.202L34.2082 9.58798L40.6007 9.07631L47.7826 4.77148L47.926 4.7942Z" fill="white"/>
<path opacity="0.5" d="M0.0737413 4.7942C-0.017596 4.90508 -0.0374711 5.076 0.0914757 5.20581L4.85445 10.0007C5.47178 10.6221 6.2734 11.024 7.13788 11.1446L11.3432 11.7331C11.9986 11.825 12.6181 12.0912 13.1382 12.5038L15.1492 14.1021L17.0759 13.0323V11.202L13.7916 9.58798L7.39901 9.07631L0.217212 4.77148L0.0737413 4.7942Z" fill="white"/>
<path opacity="0.5" d="M35.0797 15.8454C35.5575 15.0386 35.218 13.9941 34.3577 13.6252L33.7578 13.3682L28.3341 16.7949C27.9678 17.0854 27.7111 17.4932 27.6083 17.9506L25.614 30.4569L26.1498 30.3246C26.4178 30.2587 26.6475 30.0869 26.7884 29.8493L35.0797 15.8454Z" fill="white"/>
<path opacity="0.5" d="M12.9207 15.8454C12.4429 15.0386 12.7824 13.9941 13.6426 13.6252L14.2425 13.3682L19.6662 16.7949C20.0326 17.0854 20.2892 17.4932 20.392 17.9506L22.3864 30.4569L21.8506 30.3246C21.5826 30.2587 21.3529 30.0869 21.2119 29.8493L12.9207 15.8454Z" fill="white"/>
<path d="M47.518 4.70754L42.8734 7.27008C41.7708 7.87854 40.5334 8.1971 39.2755 8.1971H35.1303C33.902 8.1971 32.6838 8.42858 31.5399 8.87911L24.5118 11.6488C24.1833 11.7781 23.8183 11.7781 23.4893 11.6488L16.4606 8.87911C15.3167 8.42858 14.0986 8.1971 12.8702 8.1971H8.72452C7.46661 8.1971 6.22969 7.878 5.12661 7.27008L0.482039 4.70754C0.334746 4.62587 0.188524 4.67671 0.104126 4.77893L5.76093 8.96673C6.27807 9.34965 6.89251 9.57735 7.53329 9.6244L12.4826 9.98407C13.2132 10.0376 13.9201 10.2648 14.5458 10.6482L15.5441 11.2594C16.1687 11.6423 16.1021 12.5753 15.4296 12.8641L15.0812 13.0134L14.2738 13.3601L19.2087 17.2791C19.5748 17.57 19.8312 17.9789 19.9339 18.4365L22.4109 30.4731C23.4549 30.7316 24.5451 30.7316 25.589 30.4731L28.0661 18.4365C28.1688 17.9784 28.4247 17.5695 28.7913 17.2791L33.7257 13.3601L32.9182 13.0134L32.5699 12.8641C31.8974 12.5753 31.8307 11.6418 32.4554 11.2594L33.4536 10.6477C34.0788 10.2648 34.7862 10.0371 35.5168 9.98407L40.4662 9.6244C41.107 9.57789 41.7214 9.35019 42.2385 8.96673L47.8959 4.77893C47.8115 4.67671 47.6658 4.62587 47.518 4.70754Z" fill="white"/>
</g>
</g>
<defs>
<clipPath id="clip0_2_1502">
<rect width="114" height="40" fill="white"/>
</clipPath>
<clipPath id="clip1_2_1502">
<rect width="47.9998" height="26" fill="white" transform="translate(0 4.66699)"/>
</clipPath>
</defs>
</svg>
