<svg width="120" height="110" viewBox="0 0 120 110" fill="none" xmlns="http://www.w3.org/2000/svg">
<path d="M69.904 94.9136C69.904 90.127 66.7586 87.0811 61.8778 87.0811H51.5196V108.621H56.075V102.746H59.9254L64.5351 108.621H70.3378L65.1859 102.202C68.1143 101.114 69.904 98.5035 69.904 94.9136ZM56.075 91.5412H61.8235C63.9385 91.5412 65.5112 92.7923 65.5112 94.968C65.5112 97.0893 63.9385 98.3403 61.8235 98.3403H56.075V91.5412Z" fill="white"/>
<path d="M8.78546 87.1354L1.52588e-05 108.621H4.98928L6.77891 104.052H15.7813L17.5709 108.621H22.7229L13.8832 87.0811H8.78546V87.1354ZM8.35161 100.081L11.2801 92.6291L14.2086 100.081H8.35161Z" fill="white"/>
<path d="M40.6183 99.3741C40.6183 102.474 38.7745 104.813 35.6291 104.813C32.5379 104.813 30.694 102.474 30.694 99.3741V87.1357H26.1386V99.4285C26.1386 105.412 29.9348 109.219 35.6291 109.219C41.4318 109.219 45.1195 105.412 45.1195 99.4285V87.1357H40.5641V99.3741H40.6183Z" fill="white"/>
<path d="M85.36 86.6465C78.4727 86.6465 74.0257 91.8138 74.0257 97.9058C74.0257 104.052 78.4727 109.111 85.36 109.111C92.2474 109.111 96.6943 104.052 96.6943 97.9058C96.6943 91.7594 92.2474 86.6465 85.36 86.6465ZM85.36 104.65C81.1842 104.65 78.6896 101.496 78.6896 97.9058C78.6896 94.2615 81.2384 91.1611 85.36 91.1611C89.4816 91.1611 92.0304 94.2615 92.0304 97.9058C92.0304 101.496 89.5358 104.65 85.36 104.65Z" fill="white"/>
<path d="M111.769 97.6335L119.145 87.1357H113.885L109.166 93.826L104.611 87.1357H98.8625L106.401 97.7423L98.6455 108.621H104.231L109.058 101.55L113.83 108.621H119.579L111.769 97.6335Z" fill="white"/>
<path d="M119.143 0.652711C118.817 0.271963 118.329 0 117.787 0C117.516 0 117.191 0.0543926 116.919 0.21757L105.531 6.47272C102.982 7.88693 100.108 8.59403 97.1792 8.59403H87.038C83.8926 8.59403 80.8014 9.19235 77.8729 10.3346L72.6667 12.3471L65.3998 11.2049C63.5559 10.9329 61.712 10.6066 59.7597 10.6066C57.8074 10.6066 55.9093 10.8785 54.1197 11.2049L46.8527 12.3471L41.6465 10.3346C38.7181 9.19235 35.6269 8.59403 32.4815 8.59403H22.3403C19.4118 8.59403 16.5375 7.83253 13.9887 6.47272L2.60012 0.21757C2.32896 0.0543926 2.05781 0 1.73242 0C1.24434 0 0.75626 0.21757 0.430873 0.652711C-0.165669 1.35982 -0.111438 2.33888 0.539335 2.99159L12.199 14.7404C13.8802 16.4266 16.0494 17.5144 18.3814 17.8408L28.6853 19.255C30.0953 19.4726 31.4511 20.0165 32.5899 20.9412L33.9457 22.029C32.6984 22.5729 31.7765 23.6064 31.3426 24.9118C30.9088 26.2172 31.0715 27.6858 31.7765 28.8825L52.1131 63.1498C52.6012 63.9657 53.4147 64.564 54.2824 64.7816L55.5839 65.1079C56.9397 65.4343 58.3497 65.5975 59.7055 65.5975C61.0613 65.5975 62.4713 65.4343 63.8271 65.1079L65.1286 64.7816C66.0505 64.564 66.8098 63.9657 67.2979 63.1498L87.6345 28.8825C88.3395 27.6858 88.5022 26.2716 88.0684 24.9118C87.6345 23.6064 86.7126 22.5729 85.4653 22.029L86.8211 20.9412C87.9599 20.0165 89.3157 19.4726 90.7257 19.255L101.03 17.8408C103.362 17.5144 105.531 16.4266 107.212 14.7404L118.926 2.99159C119.685 2.33888 119.739 1.35982 119.143 0.652711ZM80.8014 22.5729L79.6083 22.0834C78.6864 21.7026 77.9814 20.8324 77.9272 19.8533C77.8729 18.8198 78.361 17.8952 79.2287 17.3512L82.7537 15.2299C84.3264 14.2509 86.1703 13.6525 88.0142 13.5438L100.162 12.6735C101.626 12.5647 103.036 12.0208 104.229 11.1505L114.425 4.13384L105.639 12.9454C104.338 14.2509 102.657 15.0668 100.867 15.3387L90.563 16.7529C88.6649 17.0249 86.9295 17.7864 85.4111 18.9286L80.8014 22.5729L84.5434 24.2591C85.1399 24.5311 85.5738 25.0206 85.7907 25.6189C86.0076 26.2716 85.8991 26.9243 85.5738 27.5227L65.2371 61.79C65.0744 62.0076 64.8575 62.1707 64.5863 62.2795L63.2848 62.6059C62.9594 62.7147 62.5798 62.7691 62.2544 62.8235L68.1656 34.1042C68.4367 32.8531 69.1417 31.7653 70.1179 31.0038L80.8014 22.5729ZM54.4993 13.7613C56.2347 13.4894 58.0243 13.2174 59.7597 13.2174C61.4951 13.2174 63.2848 13.4894 65.0201 13.7613L70.0636 14.5772L61.0613 18.1127C60.2478 18.4391 59.3801 18.4391 58.5666 18.1127L49.5643 14.5772L54.4993 13.7613ZM15.3444 11.0961C16.5375 11.9664 17.9475 12.5103 19.4118 12.6191L31.5595 13.4894C33.4034 13.5981 35.2473 14.1965 36.82 15.1755L40.345 17.2968C41.2127 17.8408 41.7008 18.7654 41.6465 19.7989C41.5923 20.8324 40.8873 21.6483 39.9654 22.029L38.7723 22.5185L49.4016 31.0038C50.3777 31.7653 51.0827 32.9075 51.3539 34.1042L57.2651 62.8235C56.9397 62.7691 56.5601 62.7147 56.2347 62.6059L54.9332 62.2795C54.662 62.2251 54.4451 62.062 54.2824 61.79L33.9457 27.5227C33.6203 26.9787 33.5119 26.2716 33.7288 25.6189C33.9457 25.0206 34.3796 24.4767 34.9761 24.2591L38.7181 22.5729L34.1626 18.9286C32.6984 17.732 30.9088 16.9705 29.0107 16.7529L18.7068 15.3387C16.9171 15.0668 15.236 14.2509 13.9344 12.9454L5.14898 4.13384L15.3444 11.0961Z" fill="white"/>
</svg>
